{
  "accessors": [
    {
      "bufferView": 2,
      "componentType": 5126,
      "count": 512,
      "max": [
        1.027585506439209,
        1.0101391077041626,
        2.4554427380252264e-09
      ],
      "min": [
        -1.0287045240402222,
        -1.0004342794418335,
        -0.19180814921855927
      ],
      "type": "VEC3"
    },
    {
      "bufferView": 2,
      "byteOffset": 6144,
      "componentType": 5126,
      "count": 512,
      "max": [
        1.0,
        1.0,
        1.0
      ],
      "min": [
        -1.0,
        -1.0,
        -1.0
      ],
      "type": "VEC3"
    },
    {
      "bufferView": 3,
      "componentType": 5126,
      "count": 512,
      "max": [
        1.0,
        1.0,
        0.9999567866325378,
        1.0
      ],
      "min": [
        -1.0,
        -0.9856139421463013,
        -0.9999567270278931,
        1.0
      ],
      "type": "VEC4"
    },
    {
      "bufferView": 1,
      "componentType": 5126,
      "count": 512,
      "max": [
        0.9081241488456726,
        0.9953422546386719
      ],
      "min": [
        0.10546570271253586,
        0.007216194644570351
      ],
      "type": "VEC2"
    },
    {
      "bufferView": 0,
      "componentType": 5125,
      "count": 792,
      "type": "SCALAR"
    }
  ],
  "asset": {
    "extras": {
      "author": "toya_mimura (https://sketchfab.com/toya_mimura)",
      "license": "CC-BY-4.0 (http://creativecommons.org/licenses/by/4.0/)",
      "source": "https://sketchfab.com/3d-models/frame03-f2a37b4ca65f465fa5bf69f60aaa1f40",
      "title": "Frame03"
    },
    "generator": "Sketchfab-16.14.0",
    "version": "2.0"
  },
  "bufferViews": [
    {
      "buffer": 0,
      "byteLength": 3168,
      "name": "floatBufferViews",
      "target": 34963
    },
    {
      "buffer": 0,
      "byteLength": 4096,
      "byteOffset": 3168,
      "byteStride": 8,
      "name": "floatBufferViews",
      "target": 34962
    },
    {
      "buffer": 0,
      "byteLength": 12288,
      "byteOffset": 7264,
      "byteStride": 12,
      "name": "floatBufferViews",
      "target": 34962
    },
    {
      "buffer": 0,
      "byteLength": 8192,
      "byteOffset": 19552,
      "byteStride": 16,
      "name": "floatBufferViews",
      "target": 34962
    }
  ],
  "buffers": [
    {
      "byteLength": 27744,
      "uri": "scene.bin"
    }
  ],
  "extensionsUsed": [
    "KHR_materials_specular"
  ],
  "images": [
    {
      "uri": "textures/Material.003_normal.png"
    }
  ],
  "materials": [
    {
      "doubleSided": true,
      "extensions": {
        "KHR_materials_specular": {
          "specularColorFactor": [
            1.0,
            1.0,
            1.0
          ],
          "specularFactor": 1.0
        }
      },
      "name": "Material.003",
      "normalTexture": {
        "index": 0
      },
      "pbrMetallicRoughness": {
        "baseColorFactor": [
          0.1438852517208442,
          0.08705219068722414,
          0.02619294581796685,
          1.0
        ],
        "roughnessFactor": 0.0
      }
    }
  ],
  "meshes": [
    {
      "name": "Plane.001_Material.003_0",
      "primitives": [
        {
          "attributes": {
            "NORMAL": 1,
            "POSITION": 0,
            "TANGENT": 2,
            "TEXCOORD_0": 3
          },
          "indices": 4,
          "material": 0,
          "mode": 4
        }
      ]
    }
  ],
  "nodes": [
    {
      "children": [
        1
      ],
      "matrix": [
        1.0,
        0.0,
        0.0,
        0.0,
        0.0,
        2.220446049250313e-16,
        -1.0,
        0.0,
        0.0,
        1.0,
        2.220446049250313e-16,
        0.0,
        0.0,
        0.0,
        0.0,
        1.0
      ],
      "name": "Sketchfab_model"
    },
    {
      "children": [
        2
      ],
      "matrix": [
        1.0,
        0.0,
        0.0,
        0.0,
        0.0,
        0.0,
        1.0,
        0.0,
        0.0,
        -1.0,
        0.0,
        0.0,
        0.0,
        0.0,
        0.0,
        1.0
      ],
      "name": "905978e836d54c9a9ef91ed8a311c6e2.fbx"
    },
    {
      "children": [
        3
      ],
      "name": "RootNode"
    },
    {
      "children": [
        4
      ],
      "matrix": [
        0.07225652784109116,
        0.0,
        0.0,
        0.0,
        0.0,
        0.09140580147504797,
        3.9954744799363085e-09,
        0.0,
        0.0,
        -3.938201561170187e-09,
        0.09009554982185355,
        0.0,
        0.00032645463943481445,
        -0.001310064340941608,
        0.038538213819265366,
        1.0
      ],
      "name": "Plane.001"
    },
    {
      "mesh": 0,
      "name": "Plane.001_Material.003_0"
    }
  ],
  "samplers": [
    {
      "magFilter": 9729,
      "minFilter": 9987,
      "wrapS": 10497,
      "wrapT": 10497
    }
  ],
  "scene": 0,
  "scenes": [
    {
      "name": "Sketchfab_Scene",
      "nodes": [
        0
      ]
    }
  ],
  "textures": [
    {
      "sampler": 0,
      "source": 0
    }
  ]
}
